<?xml version="1.0" encoding="UTF-8"?>
<svg version="1.1" xmlns="http://www.w3.org/2000/svg" width="397" height="378">
<path d="M0 0 C131.01 0 262.02 0 397 0 C397 124.74 397 249.48 397 378 C265.99 378 134.98 378 0 378 C0 253.26 0 128.52 0 0 Z " fill="#FFFEFE" transform="translate(0,0)"/>
<path d="M0 0 C1.64278427 -0.01925285 1.64278427 -0.01925285 3.3187561 -0.03889465 C5.10302505 -0.04997505 5.10302505 -0.04997505 6.92333984 -0.0612793 C8.14451508 -0.06935104 9.36569031 -0.07742279 10.62387085 -0.08573914 C13.21472753 -0.09959249 15.80560256 -0.11030902 18.39648438 -0.11816406 C22.3471985 -0.13533687 26.29706736 -0.17920912 30.24755859 -0.22338867 C32.76447952 -0.23351888 35.28140757 -0.24203395 37.79833984 -0.2487793 C39.56439072 -0.27504143 39.56439072 -0.27504143 41.36611938 -0.30183411 C49.49532051 -0.2804873 54.74837904 0.86735548 61.14990234 6.1496582 C61.76349609 6.83930664 62.37708984 7.52895508 63.00927734 8.23950195 C63.63318359 8.91110352 64.25708984 9.58270508 64.89990234 10.2746582 C69.85262384 18.00548188 71.60962718 27.17606642 73.44677734 36.05200195 C75.86005223 47.31183449 78.50622135 58.49644515 81.25927734 69.67700195 C84.15770946 81.46862978 86.93717279 93.27256091 89.52099609 105.13793945 C91.4682029 114.0180584 93.59553922 122.84782604 95.75927734 131.67700195 C98.20438463 141.65458713 100.56881626 151.63958488 102.75927734 161.67700195 C105.46168558 174.05843422 108.43041532 186.36769327 111.44680786 198.67547607 C112.81589927 204.26785313 114.17457987 209.86258692 115.49755859 215.46606445 C115.74159424 216.49683105 115.98562988 217.52759766 116.23706055 218.58959961 C116.75927734 221.17700195 116.75927734 221.17700195 116.75927734 224.17700195 C215.75927734 223.68200195 215.75927734 223.68200195 316.75927734 223.17700195 C318.70154627 217.99761814 320.1914358 213.87513965 321.24365234 208.6184082 C321.49179687 207.40556152 321.73994141 206.19271484 321.99560547 204.94311523 C322.37362305 203.07888916 322.37362305 203.07888916 322.75927734 201.17700195 C323.28197589 198.74789475 323.80805881 196.31951351 324.33740234 193.8918457 C327.85774564 177.55909017 331.15794348 161.20013047 334.18603516 144.76855469 C335.80465632 136.02059683 337.54517118 127.30460839 339.37011719 118.59716797 C339.6005925 117.49433723 339.83106781 116.3915065 340.06852722 115.25525665 C340.63140771 112.56235723 341.19500557 109.86961013 341.75927734 107.17700195 C340.53637623 107.18161092 339.31347511 107.18621988 338.05351639 107.19096851 C309.03711249 107.29921184 280.02071632 107.38168146 251.00415833 107.4323286 C247.43424973 107.43858228 243.86434156 107.44505388 240.29443359 107.45166016 C239.22835798 107.45362748 239.22835798 107.45362748 238.14074549 107.45563456 C226.62649796 107.47740278 215.112375 107.51683203 203.59820142 107.56276593 C191.78730027 107.60949129 179.97646444 107.63728902 168.16547465 107.64744443 C161.52981945 107.6536949 154.89439631 107.66937036 148.25882721 107.70565224 C142.01752967 107.73950294 135.77663223 107.75007686 129.53525162 107.74254036 C127.24062809 107.74391979 124.94599164 107.75391675 122.6514473 107.77302933 C119.52569994 107.79779581 116.40147618 107.7919664 113.2756958 107.77827454 C112.36130147 107.79283874 111.44690714 107.80740295 110.5048039 107.8224085 C104.39350262 107.74972201 104.39350262 107.74972201 101.19575119 104.86207867 C99.30897889 101.33529788 99.18551683 99.12160549 99.75927734 95.17700195 C101.18626022 92.99222183 101.18626022 92.99222183 103.75927734 91.17700195 C106.97944686 90.58493353 110.16158838 90.65506492 113.42755127 90.69598389 C114.41918864 90.69256619 115.41082601 90.68914849 116.432513 90.68562722 C119.76470767 90.67902381 123.09610185 90.70106568 126.42822266 90.72290039 C128.81301861 90.72402833 131.19781594 90.72339605 133.58261108 90.72113037 C139.39216134 90.72009973 145.20144818 90.73746528 151.0109382 90.76288101 C157.77062671 90.79146578 164.53027767 90.79746083 171.29001817 90.80203369 C183.34493107 90.81078858 195.39973572 90.83740936 207.45458984 90.87524414 C219.16487079 90.91195924 230.87512234 90.94027344 242.58544922 90.95727539 C243.30725125 90.95832628 244.02905329 90.95937718 244.77272812 90.96045992 C248.39379064 90.96568006 252.01485336 90.97073489 255.63591623 90.97570753 C285.67711246 91.01717559 315.71818224 91.08792656 345.75927734 91.17700195 C345.85776978 90.24488892 345.85776978 90.24488892 345.95825195 89.29394531 C346.04598877 88.48062744 346.13372559 87.66730957 346.22412109 86.8293457 C346.31040771 86.02231201 346.39669434 85.21527832 346.4855957 84.38378906 C346.75927734 82.17700195 346.75927734 82.17700195 347.32177734 79.73950195 C348.30152981 74.00095179 348.26307851 67.81625634 346.75927734 62.17700195 C345.70740234 62.09450195 344.65552734 62.01200195 343.57177734 61.92700195 C339.45656029 61.11745106 337.72954736 60.05991109 334.75927734 57.17700195 C333.15841107 53.97526941 333.26010645 50.65123136 333.75927734 47.17700195 C335.55291645 44.36696735 336.7780867 42.66759728 339.75927734 41.17700195 C346.0715189 40.51947679 351.25216753 42.03387658 356.75927734 45.17700195 C363.18802434 50.59132689 367.02153828 58.01663023 368.75927734 66.17700195 C369.26381545 73.44032386 368.42163866 80.01926897 366.69677734 87.05200195 C364.34184855 97.23794259 362.34874774 107.46218356 360.44677734 117.73950195 C357.89567211 131.47679353 355.11471641 145.15026176 352.18548584 158.81155396 C349.92542507 169.37337246 347.83014274 179.9477328 345.94338989 190.58267212 C342.36330455 210.75927692 342.36330455 210.75927692 340.25927734 220.73950195 C340.09403564 221.59543945 339.92879395 222.45137695 339.75854492 223.33325195 C338.23311538 230.26332116 335.02105502 235.44337689 329.56396484 240.0168457 C328.60876953 240.56018555 328.60876953 240.56018555 327.63427734 241.11450195 C326.99232422 241.49477539 326.35037109 241.87504883 325.68896484 242.2668457 C321.14976484 244.40780441 316.70277062 244.31622618 311.76141357 244.29725647 C310.94945251 244.29811089 310.13749144 244.29896532 309.30092549 244.29984564 C306.57705948 244.30149426 303.85325489 244.29598913 301.12939453 244.29052734 C299.17809043 244.29024531 297.22678622 244.29040352 295.27548218 244.29096985 C289.97422595 244.2912572 284.67299227 244.28537043 279.37174129 244.27839589 C273.83305411 244.27215209 268.29436643 244.27155774 262.75567627 244.27037048 C252.26559497 244.26726021 241.77552407 244.25905089 231.28544736 244.24902099 C219.34362431 244.23785046 207.40180078 244.23234703 195.45997381 244.22732556 C170.89306922 244.21686804 146.32617386 244.19927444 121.75927734 244.17700195 C121.97132813 244.92385254 122.18337891 245.67070312 122.40185547 246.44018555 C123.35702215 249.81003459 124.3081986 253.180997 125.25927734 256.55200195 C125.59314453 257.72762695 125.92701172 258.90325195 126.27099609 260.11450195 C126.58681641 261.23598633 126.90263672 262.3574707 127.22802734 263.51293945 C127.52128906 264.5498291 127.81455078 265.58671875 128.11669922 266.6550293 C128.75927734 269.17700195 128.75927734 269.17700195 128.75927734 271.17700195 C129.8266447 271.17754672 130.89401205 271.17809149 131.99372387 271.17865276 C157.94914207 271.19303965 183.9043924 271.23602087 209.85971355 271.30909252 C222.41145972 271.3437653 234.9630958 271.36910105 247.51489258 271.37255859 C258.45334567 271.37559529 269.39160281 271.39604626 280.32998019 271.43752652 C286.12335817 271.45888476 291.91645738 271.47144253 297.70987511 271.46315575 C303.16088611 271.45563364 308.61133143 271.47136381 314.06223869 271.5050621 C316.06453026 271.51331754 318.06687785 271.51301936 320.06916428 271.50359917 C322.80062041 271.49201897 325.53020972 271.51103098 328.26152039 271.5377655 C329.05627342 271.52709224 329.85102646 271.51641899 330.66986293 271.50542229 C334.77550378 271.58054021 336.52912969 271.98493231 339.72788715 274.65445423 C340.39824592 275.48689498 341.06860468 276.31933573 341.75927734 277.17700195 C342.08927734 277.50700195 342.41927734 277.83700195 342.75927734 278.17700195 C342.80394238 282.58097484 342.55526599 286.14991982 339.82177734 289.67700195 C335.83184994 292.57876734 332.43156227 292.32793012 327.65161133 292.3309021 C326.80349569 292.33528435 325.95538006 292.33966661 325.08156395 292.34418166 C322.22283081 292.35759903 319.36412853 292.36375519 316.50537109 292.36987305 C314.46221272 292.37777192 312.41905575 292.38604074 310.37590027 292.39465332 C303.64953957 292.42090601 296.92317256 292.43618773 290.19677734 292.45043945 C287.88214107 292.45579847 285.56750484 292.46117597 283.25286865 292.46657181 C273.62274719 292.48820844 263.99262742 292.50694402 254.36248779 292.5181942 C240.55997526 292.53442384 226.7577447 292.567569 212.95533848 292.62459505 C203.25246203 292.66331575 193.54966092 292.68282964 183.84670925 292.68811476 C178.05147653 292.69176628 172.25654432 292.70376615 166.46139526 292.7362175 C161.00468109 292.76633396 155.54844868 292.77259694 150.09166908 292.76083374 C148.09305334 292.76061328 146.09441502 292.76889512 144.09587669 292.78648758 C122.91744249 292.96270405 122.91744249 292.96270405 114.64126587 285.18709373 C107.59267903 277.88436391 105.96600941 269.38694403 103.94677734 259.73950195 C102.03118561 250.84328269 100.01606754 241.99293605 97.75927734 233.17700195 C95.30933446 223.57281073 93.12431859 213.9263314 91.00927734 204.2434082 C89.38397172 196.85334671 87.62857831 189.50891707 85.75927734 182.17700195 C83.67040693 173.97722506 81.74807334 165.75713069 79.94677734 157.48950195 C77.54651403 146.48910166 74.93945355 135.54944349 72.25927734 124.61450195 C68.05023761 107.42580096 63.98497953 90.21166719 60.14852905 72.93537903 C59.36244485 69.39680199 58.57329394 65.85891021 57.78442383 62.32095337 C57.21689751 59.76752702 56.65489896 57.21293009 56.09326172 54.65820312 C54.2616358 46.39197923 52.29614792 38.18364374 50.04443359 30.02075195 C49.83153183 29.24582397 49.61863007 28.470896 49.39927673 27.67248535 C48.62730442 24.13910233 48.62730442 24.13910233 46.75927734 21.17700195 C45.1640516 21.09070563 43.56505716 21.07291607 41.9675293 21.08276367 C40.94589188 21.08541229 39.92425446 21.08806091 38.87165833 21.09078979 C37.75820541 21.09603668 36.6447525 21.10128357 35.49755859 21.10668945 C33.15835845 21.09810273 30.81916463 21.08762588 28.47998047 21.07543945 C24.77743532 21.05875137 21.07629177 21.05197096 17.3737793 21.07739258 C13.80999131 21.09836024 10.24872631 21.0751084 6.68505859 21.04418945 C5.58172684 21.06158173 4.47839508 21.078974 3.34162903 21.09689331 C-4.13558356 20.97966547 -4.13558356 20.97966547 -7.29043579 18.68829346 C-10.07384392 15.598512 -11.14763816 13.71689204 -11.86572266 9.55200195 C-11.14641121 5.66772014 -10.01170594 3.94798523 -7.24072266 1.17700195 C-4.68919295 -0.0987629 -2.85683751 0.02910522 0 0 Z " fill="#FF5858" transform="translate(16.24072265625,6.822998046875)"/>
<path d="M0 0 C7.0553798 5.32575407 12.2717254 11.95213141 14.21484375 20.671875 C15.35972944 31.14280874 13.96153254 38.94712328 7.65234375 47.359375 C2.41038311 53.1107845 -5.49903327 57.23899564 -13.265625 57.875 C-24.2799754 58.06572468 -30.58315315 55.6884392 -38.6171875 48.015625 C-41.38735799 45.02084609 -43.07685861 42.37318655 -44.78515625 38.671875 C-45.19765625 37.90875 -45.61015625 37.145625 -46.03515625 36.359375 C-48.51905615 27.45873371 -46.3961056 18.42753275 -42.03515625 10.484375 C-31.7306653 -2.39623869 -15.67982864 -9.28788519 0 0 Z " fill="#FF5959" transform="translate(330.78515625,309.328125)"/>
<path d="M0 0 C8.13549116 4.60540487 13.51133969 10.73271704 16.625 19.5625 C16.90572234 22.31192767 17.0575949 24.76653318 17 27.5 C16.98839844 28.20584229 16.97679687 28.91168457 16.96484375 29.63891602 C16.67546434 38.83841523 14.14640173 43.82054133 7.8828125 50.51171875 C0.63175781 57.09788434 -6.63100498 58.95248169 -16.2109375 58.8359375 C-24.80635143 58.09312395 -31.73734657 53.98316085 -37.375 47.5625 C-43.7352087 39.55787837 -44.67867312 31.3751128 -43.67773438 21.49658203 C-42.45252671 13.669086 -37.53217416 7.3162936 -31.375 2.5625 C-21.60009553 -3.34204635 -10.63201571 -4.9029168 0 0 Z " fill="#FF5858" transform="translate(178.375,308.4375)"/>
<path d="M0 0 C3.38182152 2.15206824 5.75151347 4.14104163 7 8 C7.48792535 11.82208189 7.33778998 13.46918717 5.25 16.75 C1.8 20.2 1.8 20.2 -1 21 C-5.58037182 21 -7.45711706 20.47357873 -10.9375 17.4375 C-13.74495371 13.55743109 -13.74297224 10.68072512 -13 6 C-9.03891073 1.10075801 -6.2893671 -0.61660462 0 0 Z " fill="#FFFAFA" transform="translate(318,326)"/>
<path d="M0 0 C3.4886665 1.89464654 6.39767907 4.07867247 7.6171875 7.96875 C7.87318455 11.88399905 7.00028936 13.99945985 5.125 17.5 C2.65261326 20.07128221 0.51782484 20.51897867 -3 20.75 C-6.55571474 20.52179741 -8.65266326 20.05817695 -11.125 17.4375 C-13.31544373 13.42168649 -13.80349809 11.4995893 -13 7 C-9.68458996 1.56370266 -6.42545413 -0.84864488 0 0 Z " fill="#FFFCFC" transform="translate(168,326)"/>
</svg>
